# xmcd
#
# Track frame offsets: 
#        300
#        11783
#        24534
#        37835
#        51605
#        64609
#        75917
#        89091
#        102441
#        112308
#        125514
#        138807
#        152655
#        164803
#        178948
#        191172
#        202180
#        214141
#        227934
#        240545
#        252008
#        262847
#        274320
#        284715
#        294347
#        304074
#
# Disc length: 4178 seconds
#
# Revision: 0
# Processed by: cddbd v1.5.2PL0 Copyright (c) Steve Scherf et al.
# Submitted via: ExactAudioCopy v1.0b1
#
DISCID=90104e1a
DTITLE=T-Bone Walker - The Complete Imperial Recordin [CD2)
DYEAR=1991
DGENRE=Texas Blues
TTITLE0=Blues Is A Woman
TTITLE1=I Got The Blues
TTITLE2=Here In The Dark
TTITLE3=Blue Mood
TTITLE4=Every Time
TTITLE5=I Miss You Baby
TTITLE6=Lollie Lou
TTITLE7=Party Girl
TTITLE8=Love Is Just A Gamble
TTITLE9=High Society
TTITLE10=Long Distance Blues
TTITLE11=Got No Use For You
TTITLE12=I'm Still In Love With You
TTITLE13=Railroad Station Blues
TTITLE14=Vida Lee
TTITLE15=My Baby Is Now On My Mind
TTITLE16=Doin' Time
TTITLE17=Bye Bye Baby
TTITLE18=When The Sun Goes Down
TTITLE19=Pony Tail
TTITLE20=Wanderin' Heart
TTITLE21=I'll Always Be In Love With Yo
TTITLE22=I'll Understand
TTITLE23=Hard Way
TTITLE24=Teen Age Baby
TTITLE25=Strugglin' Blues
EXTD=
EXTT0=
EXTT1=
EXTT2=
EXTT3=
EXTT4=
EXTT5=
EXTT6=
EXTT7=
EXTT8=
EXTT9=
EXTT10=
EXTT11=
EXTT12=
EXTT13=
EXTT14=
EXTT15=
EXTT16=
EXTT17=
EXTT18=
EXTT19=
EXTT20=
EXTT21=
EXTT22=
EXTT23=
EXTT24=
EXTT25=
PLAYORDER=
